<mxfile host="65bd71144e">
    <diagram id="cH1NIoQweeDQLVjm7Gjp" name="Page-1">
        <mxGraphModel dx="1141" dy="606" grid="1" gridSize="10" guides="1" tooltips="1" connect="1" arrows="1" fold="1" page="1" pageScale="1" pageWidth="1100" pageHeight="850" math="0" shadow="0">
            <root>
                <mxCell id="0"/>
                <mxCell id="1" parent="0"/>
                <mxCell id="291" value="" style="rounded=0;whiteSpace=wrap;html=1;fontColor=#000000;" vertex="1" parent="1">
                    <mxGeometry x="810" y="120" width="279" height="360" as="geometry"/>
                </mxCell>
                <mxCell id="264" value="" style="rounded=0;whiteSpace=wrap;html=1;fontColor=#000000;" vertex="1" parent="1">
                    <mxGeometry x="870" y="300" width="210" height="70" as="geometry"/>
                </mxCell>
                <mxCell id="265" value="" style="line;strokeWidth=2;direction=south;html=1;fontColor=#000000;dashed=1;opacity=30;" vertex="1" parent="1">
                    <mxGeometry x="970" y="300" width="10" height="70" as="geometry"/>
                </mxCell>
                <mxCell id="221" value="" style="rounded=0;whiteSpace=wrap;html=1;fontColor=#000000;" vertex="1" parent="1">
                    <mxGeometry x="870" y="170" width="210" height="70" as="geometry"/>
                </mxCell>
                <mxCell id="208" value="&lt;font color=&quot;#000000&quot;&gt;x&lt;sub&gt;i&lt;/sub&gt;&lt;/font&gt;" style="whiteSpace=wrap;html=1;aspect=fixed;fillColor=#dae8fc;strokeColor=#6c8ebf;" vertex="1" parent="1">
                    <mxGeometry x="880" y="179.74" width="20" height="20" as="geometry"/>
                </mxCell>
                <mxCell id="209" value="&lt;font color=&quot;#000000&quot;&gt;y&lt;sub&gt;i&lt;/sub&gt;&lt;/font&gt;" style="whiteSpace=wrap;html=1;aspect=fixed;fillColor=#f8cecc;strokeColor=#b85450;" vertex="1" parent="1">
                    <mxGeometry x="880" y="210.52" width="20" height="20" as="geometry"/>
                </mxCell>
                <mxCell id="210" value="&lt;font color=&quot;#000000&quot;&gt;x&lt;sub&gt;i&lt;/sub&gt;&lt;/font&gt;" style="whiteSpace=wrap;html=1;aspect=fixed;fillColor=#dae8fc;strokeColor=#6c8ebf;" vertex="1" parent="1">
                    <mxGeometry x="910" y="179.74" width="20" height="20" as="geometry"/>
                </mxCell>
                <mxCell id="211" value="&lt;font color=&quot;#000000&quot;&gt;y&lt;sub&gt;i&lt;/sub&gt;&lt;/font&gt;" style="whiteSpace=wrap;html=1;aspect=fixed;fillColor=#f8cecc;strokeColor=#b85450;" vertex="1" parent="1">
                    <mxGeometry x="910" y="210.52" width="20" height="20" as="geometry"/>
                </mxCell>
                <mxCell id="212" value="&lt;font color=&quot;#000000&quot;&gt;x&lt;sub&gt;i&lt;/sub&gt;&lt;/font&gt;" style="whiteSpace=wrap;html=1;aspect=fixed;fillColor=#dae8fc;strokeColor=#6c8ebf;" vertex="1" parent="1">
                    <mxGeometry x="940" y="179.92000000000002" width="20" height="20" as="geometry"/>
                </mxCell>
                <mxCell id="213" value="&lt;font color=&quot;#000000&quot;&gt;y&lt;sub&gt;i&lt;/sub&gt;&lt;/font&gt;" style="whiteSpace=wrap;html=1;aspect=fixed;fillColor=#f8cecc;strokeColor=#b85450;" vertex="1" parent="1">
                    <mxGeometry x="940" y="210.70000000000002" width="20" height="20" as="geometry"/>
                </mxCell>
                <mxCell id="214" value="&lt;font color=&quot;#000000&quot;&gt;&lt;span style=&quot;font-size: 10px;&quot;&gt;x&lt;sub&gt;k&lt;/sub&gt;&lt;/span&gt;&lt;/font&gt;" style="whiteSpace=wrap;html=1;aspect=fixed;fillColor=#dae8fc;strokeColor=#6c8ebf;gradientColor=#7ea6e0;" vertex="1" parent="1">
                    <mxGeometry x="990" y="179.92" width="20" height="20" as="geometry"/>
                </mxCell>
                <mxCell id="215" value="&lt;font color=&quot;#000000&quot;&gt;y&lt;span style=&quot;font-size: 10px;&quot;&gt;&lt;sub&gt;k&lt;/sub&gt;&lt;/span&gt;&lt;/font&gt;" style="whiteSpace=wrap;html=1;aspect=fixed;fillColor=#f8cecc;strokeColor=#b85450;gradientColor=#ea6b66;" vertex="1" parent="1">
                    <mxGeometry x="990" y="210.92" width="20" height="20" as="geometry"/>
                </mxCell>
                <mxCell id="216" value="&lt;font color=&quot;#000000&quot;&gt;&lt;span style=&quot;font-size: 10px;&quot;&gt;x&lt;sub&gt;k&lt;/sub&gt;&lt;/span&gt;&lt;/font&gt;" style="whiteSpace=wrap;html=1;aspect=fixed;fillColor=#dae8fc;strokeColor=#6c8ebf;gradientColor=#7ea6e0;" vertex="1" parent="1">
                    <mxGeometry x="1020" y="179.92" width="20" height="20" as="geometry"/>
                </mxCell>
                <mxCell id="217" value="&lt;font color=&quot;#000000&quot;&gt;y&lt;span style=&quot;font-size: 10px;&quot;&gt;&lt;sub&gt;k&lt;/sub&gt;&lt;/span&gt;&lt;/font&gt;" style="whiteSpace=wrap;html=1;aspect=fixed;fillColor=#f8cecc;strokeColor=#b85450;gradientColor=#ea6b66;" vertex="1" parent="1">
                    <mxGeometry x="1020" y="210.92" width="20" height="20" as="geometry"/>
                </mxCell>
                <mxCell id="218" value="" style="line;strokeWidth=2;direction=south;html=1;fontColor=#000000;dashed=1;opacity=30;" vertex="1" parent="1">
                    <mxGeometry x="970" y="170" width="10" height="70" as="geometry"/>
                </mxCell>
                <mxCell id="219" value="&lt;font color=&quot;#000000&quot;&gt;&lt;span style=&quot;font-size: 10px;&quot;&gt;x&lt;sub&gt;k&lt;/sub&gt;&lt;/span&gt;&lt;/font&gt;" style="whiteSpace=wrap;html=1;aspect=fixed;fillColor=#dae8fc;strokeColor=#6c8ebf;gradientColor=#7ea6e0;" vertex="1" parent="1">
                    <mxGeometry x="1050" y="179.92" width="20" height="20" as="geometry"/>
                </mxCell>
                <mxCell id="220" value="&lt;font color=&quot;#000000&quot;&gt;y&lt;span style=&quot;font-size: 10px;&quot;&gt;&lt;sub&gt;k&lt;/sub&gt;&lt;/span&gt;&lt;/font&gt;" style="whiteSpace=wrap;html=1;aspect=fixed;fillColor=#f8cecc;strokeColor=#b85450;gradientColor=#ea6b66;" vertex="1" parent="1">
                    <mxGeometry x="1050" y="210.92" width="20" height="20" as="geometry"/>
                </mxCell>
                <mxCell id="222" value="" style="line;strokeWidth=2;direction=south;html=1;fontColor=#000000;dashed=1;dashPattern=1 4;" vertex="1" parent="1">
                    <mxGeometry x="915" y="250" width="10" height="50" as="geometry"/>
                </mxCell>
                <mxCell id="223" value="" style="line;strokeWidth=2;direction=south;html=1;fontColor=#000000;dashed=1;dashPattern=1 4;" vertex="1" parent="1">
                    <mxGeometry x="1025" y="250" width="10" height="50" as="geometry"/>
                </mxCell>
                <mxCell id="252" value="&lt;font color=&quot;#000000&quot;&gt;x&lt;sub&gt;i&lt;/sub&gt;&lt;/font&gt;" style="whiteSpace=wrap;html=1;aspect=fixed;fillColor=#dae8fc;strokeColor=#6c8ebf;" vertex="1" parent="1">
                    <mxGeometry x="880" y="309.74" width="20" height="20" as="geometry"/>
                </mxCell>
                <mxCell id="253" value="&lt;font color=&quot;#000000&quot;&gt;y&lt;sub&gt;i&lt;/sub&gt;&lt;/font&gt;" style="whiteSpace=wrap;html=1;aspect=fixed;fillColor=#f8cecc;strokeColor=#b85450;" vertex="1" parent="1">
                    <mxGeometry x="880" y="340.52" width="20" height="20" as="geometry"/>
                </mxCell>
                <mxCell id="254" value="&lt;font color=&quot;#000000&quot;&gt;x&lt;sub&gt;i&lt;/sub&gt;&lt;/font&gt;" style="whiteSpace=wrap;html=1;aspect=fixed;fillColor=#dae8fc;strokeColor=#6c8ebf;" vertex="1" parent="1">
                    <mxGeometry x="910" y="309.74" width="20" height="20" as="geometry"/>
                </mxCell>
                <mxCell id="255" value="&lt;font color=&quot;#000000&quot;&gt;y&lt;sub&gt;i&lt;/sub&gt;&lt;/font&gt;" style="whiteSpace=wrap;html=1;aspect=fixed;fillColor=#f8cecc;strokeColor=#b85450;" vertex="1" parent="1">
                    <mxGeometry x="910" y="340.52" width="20" height="20" as="geometry"/>
                </mxCell>
                <mxCell id="256" value="&lt;font color=&quot;#000000&quot;&gt;x&lt;sub&gt;i&lt;/sub&gt;&lt;/font&gt;" style="whiteSpace=wrap;html=1;aspect=fixed;fillColor=#dae8fc;strokeColor=#6c8ebf;" vertex="1" parent="1">
                    <mxGeometry x="940" y="309.92" width="20" height="20" as="geometry"/>
                </mxCell>
                <mxCell id="257" value="&lt;font color=&quot;#000000&quot;&gt;y&lt;sub&gt;i&lt;/sub&gt;&lt;/font&gt;" style="whiteSpace=wrap;html=1;aspect=fixed;fillColor=#f8cecc;strokeColor=#b85450;" vertex="1" parent="1">
                    <mxGeometry x="940" y="340.70000000000005" width="20" height="20" as="geometry"/>
                </mxCell>
                <mxCell id="258" value="&lt;font color=&quot;#000000&quot;&gt;&lt;span style=&quot;font-size: 10px;&quot;&gt;x&lt;sub&gt;k&lt;/sub&gt;&lt;/span&gt;&lt;/font&gt;" style="whiteSpace=wrap;html=1;aspect=fixed;fillColor=#dae8fc;strokeColor=#6c8ebf;gradientColor=#7ea6e0;" vertex="1" parent="1">
                    <mxGeometry x="990" y="309.91999999999996" width="20" height="20" as="geometry"/>
                </mxCell>
                <mxCell id="259" value="&lt;font color=&quot;#000000&quot;&gt;y&lt;span style=&quot;font-size: 10px;&quot;&gt;&lt;sub&gt;k&lt;/sub&gt;&lt;/span&gt;&lt;/font&gt;" style="whiteSpace=wrap;html=1;aspect=fixed;fillColor=#f8cecc;strokeColor=#b85450;gradientColor=#ea6b66;" vertex="1" parent="1">
                    <mxGeometry x="990" y="340.91999999999996" width="20" height="20" as="geometry"/>
                </mxCell>
                <mxCell id="260" value="&lt;font color=&quot;#000000&quot;&gt;&lt;span style=&quot;font-size: 10px;&quot;&gt;x&lt;sub&gt;k&lt;/sub&gt;&lt;/span&gt;&lt;/font&gt;" style="whiteSpace=wrap;html=1;aspect=fixed;fillColor=#dae8fc;strokeColor=#6c8ebf;gradientColor=#7ea6e0;" vertex="1" parent="1">
                    <mxGeometry x="1020" y="309.91999999999996" width="20" height="20" as="geometry"/>
                </mxCell>
                <mxCell id="261" value="&lt;font color=&quot;#000000&quot;&gt;y&lt;span style=&quot;font-size: 10px;&quot;&gt;&lt;sub&gt;k&lt;/sub&gt;&lt;/span&gt;&lt;/font&gt;" style="whiteSpace=wrap;html=1;aspect=fixed;fillColor=#f8cecc;strokeColor=#b85450;gradientColor=#ea6b66;" vertex="1" parent="1">
                    <mxGeometry x="1020" y="340.91999999999996" width="20" height="20" as="geometry"/>
                </mxCell>
                <mxCell id="262" value="&lt;font color=&quot;#000000&quot;&gt;&lt;span style=&quot;font-size: 10px;&quot;&gt;x&lt;sub&gt;k&lt;/sub&gt;&lt;/span&gt;&lt;/font&gt;" style="whiteSpace=wrap;html=1;aspect=fixed;fillColor=#dae8fc;strokeColor=#6c8ebf;gradientColor=#7ea6e0;" vertex="1" parent="1">
                    <mxGeometry x="1050" y="309.91999999999996" width="20" height="20" as="geometry"/>
                </mxCell>
                <mxCell id="263" value="&lt;font color=&quot;#000000&quot;&gt;y&lt;span style=&quot;font-size: 10px;&quot;&gt;&lt;sub&gt;k&lt;/sub&gt;&lt;/span&gt;&lt;/font&gt;" style="whiteSpace=wrap;html=1;aspect=fixed;fillColor=#f8cecc;strokeColor=#b85450;gradientColor=#ea6b66;" vertex="1" parent="1">
                    <mxGeometry x="1050" y="340.91999999999996" width="20" height="20" as="geometry"/>
                </mxCell>
                <mxCell id="266" value="" style="rounded=0;whiteSpace=wrap;html=1;fontColor=#000000;" vertex="1" parent="1">
                    <mxGeometry x="869" y="400" width="210" height="70" as="geometry"/>
                </mxCell>
                <mxCell id="267" value="" style="line;strokeWidth=2;direction=south;html=1;fontColor=#000000;dashed=1;opacity=30;" vertex="1" parent="1">
                    <mxGeometry x="969" y="400" width="10" height="70" as="geometry"/>
                </mxCell>
                <mxCell id="268" value="&lt;font color=&quot;#000000&quot;&gt;x&lt;sub&gt;i&lt;/sub&gt;&lt;/font&gt;" style="whiteSpace=wrap;html=1;aspect=fixed;fillColor=#dae8fc;strokeColor=#6c8ebf;" vertex="1" parent="1">
                    <mxGeometry x="879" y="409.74" width="20" height="20" as="geometry"/>
                </mxCell>
                <mxCell id="269" value="&lt;font color=&quot;#000000&quot;&gt;y&lt;sub&gt;i&lt;/sub&gt;&lt;/font&gt;" style="whiteSpace=wrap;html=1;aspect=fixed;fillColor=#f8cecc;strokeColor=#b85450;" vertex="1" parent="1">
                    <mxGeometry x="879" y="440.52" width="20" height="20" as="geometry"/>
                </mxCell>
                <mxCell id="270" value="&lt;font color=&quot;#000000&quot;&gt;x&lt;sub&gt;i&lt;/sub&gt;&lt;/font&gt;" style="whiteSpace=wrap;html=1;aspect=fixed;fillColor=#dae8fc;strokeColor=#6c8ebf;" vertex="1" parent="1">
                    <mxGeometry x="909" y="409.74" width="20" height="20" as="geometry"/>
                </mxCell>
                <mxCell id="271" value="&lt;font color=&quot;#000000&quot;&gt;y&lt;sub&gt;i&lt;/sub&gt;&lt;/font&gt;" style="whiteSpace=wrap;html=1;aspect=fixed;fillColor=#f8cecc;strokeColor=#b85450;" vertex="1" parent="1">
                    <mxGeometry x="909" y="440.52" width="20" height="20" as="geometry"/>
                </mxCell>
                <mxCell id="272" value="&lt;font color=&quot;#000000&quot;&gt;x&lt;sub&gt;i&lt;/sub&gt;&lt;/font&gt;" style="whiteSpace=wrap;html=1;aspect=fixed;fillColor=#dae8fc;strokeColor=#6c8ebf;" vertex="1" parent="1">
                    <mxGeometry x="939" y="409.92" width="20" height="20" as="geometry"/>
                </mxCell>
                <mxCell id="273" value="&lt;font color=&quot;#000000&quot;&gt;y&lt;sub&gt;i&lt;/sub&gt;&lt;/font&gt;" style="whiteSpace=wrap;html=1;aspect=fixed;fillColor=#f8cecc;strokeColor=#b85450;" vertex="1" parent="1">
                    <mxGeometry x="939" y="440.70000000000005" width="20" height="20" as="geometry"/>
                </mxCell>
                <mxCell id="274" value="&lt;font color=&quot;#000000&quot;&gt;&lt;span style=&quot;font-size: 10px;&quot;&gt;x&lt;sub&gt;k&lt;/sub&gt;&lt;/span&gt;&lt;/font&gt;" style="whiteSpace=wrap;html=1;aspect=fixed;fillColor=#dae8fc;strokeColor=#6c8ebf;gradientColor=#7ea6e0;" vertex="1" parent="1">
                    <mxGeometry x="989" y="409.91999999999996" width="20" height="20" as="geometry"/>
                </mxCell>
                <mxCell id="275" value="&lt;font color=&quot;#000000&quot;&gt;y&lt;span style=&quot;font-size: 10px;&quot;&gt;&lt;sub&gt;k&lt;/sub&gt;&lt;/span&gt;&lt;/font&gt;" style="whiteSpace=wrap;html=1;aspect=fixed;fillColor=#f8cecc;strokeColor=#b85450;gradientColor=#ea6b66;" vertex="1" parent="1">
                    <mxGeometry x="989" y="440.91999999999996" width="20" height="20" as="geometry"/>
                </mxCell>
                <mxCell id="276" value="&lt;font color=&quot;#000000&quot;&gt;&lt;span style=&quot;font-size: 10px;&quot;&gt;x&lt;sub&gt;k&lt;/sub&gt;&lt;/span&gt;&lt;/font&gt;" style="whiteSpace=wrap;html=1;aspect=fixed;fillColor=#dae8fc;strokeColor=#6c8ebf;gradientColor=#7ea6e0;" vertex="1" parent="1">
                    <mxGeometry x="1019" y="409.91999999999996" width="20" height="20" as="geometry"/>
                </mxCell>
                <mxCell id="277" value="&lt;font color=&quot;#000000&quot;&gt;y&lt;span style=&quot;font-size: 10px;&quot;&gt;&lt;sub&gt;k&lt;/sub&gt;&lt;/span&gt;&lt;/font&gt;" style="whiteSpace=wrap;html=1;aspect=fixed;fillColor=#f8cecc;strokeColor=#b85450;gradientColor=#ea6b66;" vertex="1" parent="1">
                    <mxGeometry x="1019" y="440.91999999999996" width="20" height="20" as="geometry"/>
                </mxCell>
                <mxCell id="278" value="&lt;font color=&quot;#000000&quot;&gt;&lt;span style=&quot;font-size: 10px;&quot;&gt;x&lt;sub&gt;k&lt;/sub&gt;&lt;/span&gt;&lt;/font&gt;" style="whiteSpace=wrap;html=1;aspect=fixed;fillColor=#dae8fc;strokeColor=#6c8ebf;gradientColor=#7ea6e0;" vertex="1" parent="1">
                    <mxGeometry x="1049" y="409.91999999999996" width="20" height="20" as="geometry"/>
                </mxCell>
                <mxCell id="279" value="&lt;font color=&quot;#000000&quot;&gt;y&lt;span style=&quot;font-size: 10px;&quot;&gt;&lt;sub&gt;k&lt;/sub&gt;&lt;/span&gt;&lt;/font&gt;" style="whiteSpace=wrap;html=1;aspect=fixed;fillColor=#f8cecc;strokeColor=#b85450;gradientColor=#ea6b66;" vertex="1" parent="1">
                    <mxGeometry x="1049" y="440.91999999999996" width="20" height="20" as="geometry"/>
                </mxCell>
                <mxCell id="280" value="" style="line;strokeWidth=2;direction=south;html=1;fontColor=#000000;dashed=1;rotation=90;opacity=30;" vertex="1" parent="1">
                    <mxGeometry x="947.29" y="248.45" width="10" height="275.64" as="geometry"/>
                </mxCell>
                <mxCell id="281" value="" style="shape=curlyBracket;whiteSpace=wrap;html=1;rounded=1;labelPosition=left;verticalLabelPosition=middle;align=right;verticalAlign=middle;fontColor=#000000;" vertex="1" parent="1">
                    <mxGeometry x="850" y="170" width="13.7" height="70" as="geometry"/>
                </mxCell>
                <mxCell id="282" value="Task" style="text;html=1;strokeColor=none;fillColor=none;align=center;verticalAlign=middle;whiteSpace=wrap;rounded=0;fontColor=#000000;" vertex="1" parent="1">
                    <mxGeometry x="810" y="190" width="40" height="30" as="geometry"/>
                </mxCell>
                <mxCell id="283" value="" style="shape=curlyBracket;whiteSpace=wrap;html=1;rounded=1;labelPosition=left;verticalLabelPosition=middle;align=right;verticalAlign=middle;fontColor=#000000;rotation=90;" vertex="1" parent="1">
                    <mxGeometry x="915.05" y="106.05" width="13.7" height="102.1" as="geometry"/>
                </mxCell>
                <mxCell id="284" value="" style="shape=curlyBracket;whiteSpace=wrap;html=1;rounded=1;labelPosition=left;verticalLabelPosition=middle;align=right;verticalAlign=middle;fontColor=#000000;rotation=90;" vertex="1" parent="1">
                    <mxGeometry x="1021.3" y="106.05" width="13.7" height="102.1" as="geometry"/>
                </mxCell>
                <mxCell id="285" value="Context Set D&lt;span style=&quot;font-size: 10px;&quot;&gt;&lt;sup&gt;c&lt;/sup&gt;&lt;/span&gt;" style="text;html=1;strokeColor=none;fillColor=none;align=center;verticalAlign=middle;whiteSpace=wrap;rounded=0;fontColor=#000000;" vertex="1" parent="1">
                    <mxGeometry x="876.23" y="120" width="91.33" height="30" as="geometry"/>
                </mxCell>
                <mxCell id="286" value="Target Set D&lt;span style=&quot;font-size: 10px;&quot;&gt;&lt;sup&gt;t&lt;/sup&gt;&lt;/span&gt;" style="text;html=1;strokeColor=none;fillColor=none;align=center;verticalAlign=middle;whiteSpace=wrap;rounded=0;fontColor=#000000;" vertex="1" parent="1">
                    <mxGeometry x="988.5899999999999" y="120" width="79.11" height="30" as="geometry"/>
                </mxCell>
                <mxCell id="287" value="" style="shape=curlyBracket;whiteSpace=wrap;html=1;rounded=1;labelPosition=left;verticalLabelPosition=middle;align=right;verticalAlign=middle;fontColor=#000000;" vertex="1" parent="1">
                    <mxGeometry x="850" y="300" width="13.7" height="70" as="geometry"/>
                </mxCell>
                <mxCell id="288" value="Task" style="text;html=1;strokeColor=none;fillColor=none;align=center;verticalAlign=middle;whiteSpace=wrap;rounded=0;fontColor=#000000;" vertex="1" parent="1">
                    <mxGeometry x="810" y="320" width="40" height="30" as="geometry"/>
                </mxCell>
                <mxCell id="289" value="" style="shape=curlyBracket;whiteSpace=wrap;html=1;rounded=1;labelPosition=left;verticalLabelPosition=middle;align=right;verticalAlign=middle;fontColor=#000000;" vertex="1" parent="1">
                    <mxGeometry x="850" y="400" width="13.7" height="70" as="geometry"/>
                </mxCell>
                <mxCell id="290" value="Task" style="text;html=1;strokeColor=none;fillColor=none;align=center;verticalAlign=middle;whiteSpace=wrap;rounded=0;fontColor=#000000;" vertex="1" parent="1">
                    <mxGeometry x="810" y="420" width="40" height="30" as="geometry"/>
                </mxCell>
                <mxCell id="292" value="" style="shape=curlyBracket;whiteSpace=wrap;html=1;rounded=1;labelPosition=left;verticalLabelPosition=middle;align=right;verticalAlign=middle;fontColor=#000000;" vertex="1" parent="1">
                    <mxGeometry x="790" y="120" width="13.7" height="260" as="geometry"/>
                </mxCell>
                <mxCell id="293" value="" style="shape=curlyBracket;whiteSpace=wrap;html=1;rounded=1;labelPosition=left;verticalLabelPosition=middle;align=right;verticalAlign=middle;fontColor=#000000;" vertex="1" parent="1">
                    <mxGeometry x="790" y="390" width="13.7" height="89" as="geometry"/>
                </mxCell>
                <mxCell id="294" value="Meta-Train Set" style="text;html=1;strokeColor=none;fillColor=none;align=center;verticalAlign=middle;whiteSpace=wrap;rounded=0;dashed=1;strokeWidth=2;fontColor=#000000;" vertex="1" parent="1">
                    <mxGeometry x="730" y="222.87" width="60" height="54.26" as="geometry"/>
                </mxCell>
                <mxCell id="295" value="Meta-Test Set" style="text;html=1;strokeColor=none;fillColor=none;align=center;verticalAlign=middle;whiteSpace=wrap;rounded=0;dashed=1;strokeWidth=2;fontColor=#000000;" vertex="1" parent="1">
                    <mxGeometry x="730" y="410.01" width="60" height="54.26" as="geometry"/>
                </mxCell>
            </root>
        </mxGraphModel>
    </diagram>
</mxfile>